<svg width="32" height="32" viewBox="0 0 32 32" fill="none" xmlns="http://www.w3.org/2000/svg">
<path opacity="0.2" d="M28 16C28 18.3734 27.2962 20.6935 25.9776 22.6668C24.6591 24.6402 22.7849 26.1783 20.5922 27.0866C18.3995 27.9948 15.9867 28.2324 13.6589 27.7694C11.3312 27.3064 9.19295 26.1635 7.51472 24.4853C5.83649 22.8071 4.6936 20.6689 4.23058 18.3411C3.76756 16.0133 4.0052 13.6005 4.91345 11.4078C5.8217 9.21509 7.35977 7.34094 9.33316 6.02236C11.3066 4.70379 13.6266 4 16 4C19.1826 4 22.2348 5.26428 24.4853 7.51472C26.7357 9.76515 28 12.8174 28 16Z" fill="#10243D" fill-opacity="0.2"/>
<path d="M23 16C23.0069 20.0406 22.2195 24.0431 20.6825 27.78C20.6079 27.9643 20.4801 28.1223 20.3153 28.2336C20.1506 28.3449 19.9564 28.4046 19.7575 28.405C19.6289 28.4038 19.5017 28.3783 19.3825 28.33C19.2609 28.2801 19.1503 28.2067 19.0571 28.114C18.9638 28.0214 18.8898 27.9112 18.8392 27.7899C18.7885 27.6686 18.7623 27.5384 18.7621 27.407C18.7618 27.2755 18.7874 27.1453 18.8375 27.0238C20.2741 23.5265 21.0089 19.7808 21 16C21 15.7348 21.1054 15.4804 21.2929 15.2929C21.4804 15.1054 21.7348 15 22 15C22.2652 15 22.5196 15.1054 22.7071 15.2929C22.8947 15.4804 23 15.7348 23 16ZM16 11C16.7033 11.0005 17.3986 11.1491 18.0406 11.4362C18.6826 11.7233 19.257 12.1424 19.7263 12.6663C19.8132 12.7665 19.9191 12.8484 20.038 12.9073C20.1569 12.9662 20.2863 13.0008 20.4187 13.0092C20.5511 13.0176 20.6838 12.9996 20.8092 12.9562C20.9345 12.9127 21.05 12.8448 21.1488 12.7563C21.2477 12.6678 21.3279 12.5606 21.3849 12.4408C21.4419 12.321 21.4745 12.1911 21.4807 12.0585C21.487 11.926 21.4669 11.7936 21.4215 11.6689C21.3761 11.5443 21.3063 11.4299 21.2163 11.3325C20.271 10.2762 19.0273 9.53183 17.6498 9.19776C16.2723 8.86368 14.8258 8.95568 13.5016 9.46159C12.1775 9.9675 11.0382 10.8635 10.2344 12.031C9.43056 13.1985 9.00012 14.5825 9.00001 16C8.99988 18.8794 8.2687 21.7116 6.87501 24.2313C6.81132 24.3462 6.77088 24.4725 6.75601 24.603C6.74114 24.7336 6.75213 24.8657 6.78834 24.992C6.82456 25.1183 6.88529 25.2362 6.96708 25.3391C7.04886 25.4419 7.1501 25.5276 7.26501 25.5913C7.37991 25.6549 7.50624 25.6954 7.63677 25.7103C7.76731 25.7251 7.89949 25.7141 8.02578 25.6779C8.15207 25.6417 8.26999 25.581 8.3728 25.4992C8.47562 25.4174 8.56132 25.3162 8.62501 25.2013C10.1826 22.3846 10.9997 19.2187 11 16C11 14.6739 11.5268 13.4022 12.4645 12.4645C13.4022 11.5268 14.6739 11 16 11ZM16 3.00001C14.5238 2.99823 13.0582 3.2485 11.6663 3.74001C11.4207 3.83183 11.221 4.01643 11.1102 4.25406C10.9993 4.49169 10.9863 4.76333 11.0738 5.01048C11.1613 5.25764 11.3424 5.46053 11.5781 5.57547C11.8137 5.69041 12.0851 5.7082 12.3338 5.62501C13.9932 5.03988 15.7688 4.86114 17.5115 5.1038C19.2543 5.34645 20.9135 6.00341 22.35 7.01959C23.7865 8.03578 24.9584 9.38157 25.7675 10.9441C26.5766 12.5067 26.9992 14.2404 27 16C27.0012 18.6171 26.7102 21.2262 26.1325 23.7788C26.0738 24.0368 26.1197 24.3076 26.2603 24.5319C26.4009 24.7561 26.6246 24.9154 26.8825 24.975C26.9555 24.9919 27.0301 25.0003 27.105 25C27.3317 25 27.5517 24.9229 27.7289 24.7814C27.906 24.6399 28.0298 24.4424 28.08 24.2213C28.6909 21.5235 28.9994 18.7661 29 16C28.9964 12.5533 27.6256 9.24883 25.1884 6.81164C22.7512 4.37446 19.4467 3.00365 16 3.00001ZM8.66376 7.80251C8.76167 7.71493 8.84138 7.60893 8.89833 7.49055C8.95528 7.37217 8.98836 7.24373 8.99567 7.11257C9.00298 6.98141 8.98439 6.85009 8.94095 6.72611C8.89751 6.60213 8.83008 6.48793 8.74251 6.39001C8.65493 6.29209 8.54893 6.21238 8.43055 6.15543C8.31217 6.09848 8.18373 6.06541 8.05257 6.0581C7.9214 6.05078 7.79009 6.06938 7.66611 6.11281C7.54213 6.15625 7.42792 6.22368 7.33001 6.31126C5.96841 7.53164 4.87913 9.02512 4.13308 10.6945C3.38704 12.3638 3.00097 14.1715 3.00001 16C3.00281 17.5819 2.66159 19.1456 2.00001 20.5825C1.94518 20.7018 1.9144 20.8308 1.90941 20.9621C1.90443 21.0933 1.92534 21.2242 1.97096 21.3474C2.06308 21.5961 2.25024 21.798 2.49126 21.9088C2.73227 22.0195 3.0074 22.0299 3.25612 21.9378C3.50484 21.8457 3.70678 21.6585 3.81751 21.4175C4.59984 19.7188 5.00333 17.8702 5.00001 16C5.00086 14.453 5.32755 12.9234 5.9588 11.511C6.59005 10.0986 7.51171 8.83504 8.66376 7.80251ZM14.2363 25.0925C13.9954 24.9822 13.7206 24.9719 13.4721 25.064C13.2237 25.1561 13.022 25.3431 12.9113 25.5838C12.67 26.1088 12.405 26.6325 12.1238 27.1388C12.0598 27.2537 12.0192 27.3801 12.0042 27.5108C11.9892 27.6415 12.0001 27.7739 12.0363 27.9003C12.0726 28.0268 12.1334 28.1448 12.2153 28.2477C12.2972 28.3506 12.3986 28.4364 12.5138 28.5C12.6616 28.5826 12.8282 28.6256 12.9975 28.625C13.1761 28.6251 13.3514 28.5774 13.5052 28.4868C13.6591 28.3963 13.7859 28.2661 13.8725 28.11C14.1775 27.5588 14.465 26.985 14.7275 26.42C14.7825 26.3006 14.8135 26.1715 14.8186 26.0402C14.8237 25.9088 14.8028 25.7777 14.7572 25.6544C14.7115 25.5311 14.642 25.418 14.5527 25.3216C14.4633 25.2252 14.3558 25.1473 14.2363 25.0925ZM16 15C15.7348 15 15.4804 15.1054 15.2929 15.2929C15.1054 15.4804 15 15.7348 15 16C15.0007 17.9394 14.7576 19.8713 14.2763 21.75C14.2102 22.0068 14.2488 22.2793 14.3836 22.5076C14.5184 22.7359 14.7383 22.9013 14.995 22.9675C15.0767 22.9883 15.1607 22.9988 15.245 22.9988C15.4666 22.9986 15.6818 22.9248 15.8569 22.7891C16.032 22.6534 16.1571 22.4633 16.2125 22.2488C16.7366 20.2068 17.0012 18.1069 17 15.9988C16.9997 15.7338 16.8942 15.4797 16.7067 15.2925C16.5192 15.1052 16.265 15 16 15Z" fill="white"/>
</svg>
