<svg width="16" height="12" viewBox="0 0 16 12" fill="none" xmlns="http://www.w3.org/2000/svg">
<path d="M15.8984 0.823704C15.8313 0.661858 15.733 0.514822 15.609 0.391005C15.4852 0.26705 15.3381 0.168717 15.1763 0.101626C15.0145 0.0345342 14.841 0 14.6658 0C14.4906 0 14.3171 0.0345342 14.1552 0.101626C13.9934 0.168717 13.8464 0.26705 13.7225 0.391005L5.33348 8.78173L2.27715 5.72374C2.02699 5.47358 1.68771 5.33305 1.33393 5.33305C0.980147 5.33305 0.640857 5.47358 0.390697 5.72374C0.140538 5.9739 0 6.31319 0 6.66697C0 7.02075 0.140538 7.36004 0.390697 7.6102L4.39025 11.6098C4.51407 11.7337 4.6611 11.832 4.82295 11.8991C4.9848 11.9662 5.15828 12.0008 5.33348 12.0008C5.50868 12.0008 5.68216 11.9662 5.84401 11.8991C6.00586 11.832 6.15289 11.7337 6.27671 11.6098L15.609 2.27746C15.733 2.15365 15.8313 2.00661 15.8984 1.84476C15.9655 1.68292 16 1.50943 16 1.33423C16 1.15903 15.9655 0.98555 15.8984 0.823704Z" fill="#10243D"/>
</svg>
