<svg width="32" height="32" viewBox="0 0 32 32" fill="none" xmlns="http://www.w3.org/2000/svg">
<path d="M11.9995 15.75C15.037 15.75 17.4995 13.2875 17.4995 10.25C17.4995 7.21242 15.037 4.75 11.9995 4.75C8.96193 4.75 6.49951 7.21242 6.49951 10.25C6.49951 13.2875 8.96193 15.75 11.9995 15.75Z" fill="white" fill-opacity="0.15"/>
<path d="M22 16.25C24.2091 16.25 26 14.4591 26 12.25C26 10.0409 24.2091 8.25 22 8.25C19.7909 8.25 18 10.0409 18 12.25C18 14.4591 19.7909 16.25 22 16.25Z" fill="white" fill-opacity="0.12"/>
<path d="M4 27.25C4 22.832 7.58198 19.25 12 19.25C16.4179 19.25 19.9999 22.832 19.9999 27.25" fill="white" fill-opacity="0.1"/>
<path d="M16 27.25C16 23.936 18.686 21.25 22 21.25C25.314 21.25 27.9999 23.936 27.9999 27.25" fill="white" fill-opacity="0.07"/>
<path d="M12 15C14.6233 15 16.75 12.8733 16.75 10.25C16.75 7.62664 14.6233 5.5 12 5.5C9.37664 5.5 7.25 7.62664 7.25 10.25C7.25 12.8733 9.37664 15 12 15Z" stroke="white" stroke-width="1.28571"/>
<path d="M21.9995 15.5C23.7944 15.5 25.2495 14.0449 25.2495 12.25C25.2495 10.4551 23.7944 9 21.9995 9C20.2046 9 18.7495 10.4551 18.7495 12.25C18.7495 14.0449 20.2046 15.5 21.9995 15.5Z" stroke="white" stroke-opacity="0.65" stroke-width="1.2"/>
<path d="M5 27.25C5 23.384 8.13399 20.25 12 20.25C15.866 20.25 18.9999 23.384 18.9999 27.25" stroke="white" stroke-width="1.28571" stroke-linecap="round"/>
<path d="M16.9995 27.25C16.9995 24.489 19.2385 22.25 21.9995 22.25C24.7605 22.25 26.9995 24.489 26.9995 27.25" stroke="white" stroke-opacity="0.55" stroke-width="1.2" stroke-linecap="round"/>
</svg>
