<svg width="32" height="32" viewBox="0 0 32 32" fill="none" xmlns="http://www.w3.org/2000/svg">
<path d="M12 15.75C15.0375 15.75 17.5 13.2875 17.5 10.25C17.5 7.21242 15.0375 4.75 12 4.75C8.96242 4.75 6.5 7.21242 6.5 10.25C6.5 13.2875 8.96242 15.75 12 15.75Z" fill="#10243D" fill-opacity="0.15"/>
<path d="M22 16.25C24.2091 16.25 26 14.4591 26 12.25C26 10.0409 24.2091 8.25 22 8.25C19.7909 8.25 18 10.0409 18 12.25C18 14.4591 19.7909 16.25 22 16.25Z" fill="#10243D" fill-opacity="0.12"/>
<path d="M4 27.25C4 22.832 7.58198 19.25 12 19.25C16.4179 19.25 19.9999 22.832 19.9999 27.25" fill="#10243D" fill-opacity="0.1"/>
<path d="M16 27.25C16 23.936 18.686 21.25 22 21.25C25.314 21.25 27.9999 23.936 27.9999 27.25" fill="#10243D" fill-opacity="0.07"/>
<path d="M12 15C14.6233 15 16.75 12.8733 16.75 10.25C16.75 7.62664 14.6233 5.5 12 5.5C9.37664 5.5 7.25 7.62664 7.25 10.25C7.25 12.8733 9.37664 15 12 15Z" stroke="#10243D" stroke-width="1.28571"/>
<path d="M22 15.5C23.7949 15.5 25.25 14.0449 25.25 12.25C25.25 10.4551 23.7949 9 22 9C20.2051 9 18.75 10.4551 18.75 12.25C18.75 14.0449 20.2051 15.5 22 15.5Z" stroke="#10243D" stroke-opacity="0.65" stroke-width="1.2"/>
<path d="M5 27.25C5 23.384 8.13399 20.25 12 20.25C15.866 20.25 18.9999 23.384 18.9999 27.25" stroke="#10243D" stroke-width="1.28571" stroke-linecap="round"/>
<path d="M17 27.25C17 24.489 19.239 22.25 22 22.25C24.761 22.25 27 24.489 27 27.25" stroke="#10243D" stroke-opacity="0.55" stroke-width="1.2" stroke-linecap="round"/>
</svg>
