<svg width="32" height="34" viewBox="0 0 32 34" fill="none" xmlns="http://www.w3.org/2000/svg">
<path d="M3.19922 28.6423C3.19922 25.0005 6.15186 22.0479 9.79362 22.0479C13.4354 22.0479 16.388 25.0005 16.388 28.6423" fill="#10243D" fill-opacity="0.1"/>
<path d="M3.19922 28.6423C3.19922 25.0005 6.15186 22.0479 9.79362 22.0479C13.4354 22.0479 16.388 25.0005 16.388 28.6423" stroke="#10243D" stroke-opacity="0.65" stroke-width="1.37143" stroke-linecap="round"/>
<path d="M9.79335 18.5447C11.9558 18.5447 13.7088 16.7917 13.7088 14.6293C13.7088 12.4669 11.9558 10.7139 9.79335 10.7139C7.63092 10.7139 5.87793 12.4669 5.87793 14.6293C5.87793 16.7917 7.63092 18.5447 9.79335 18.5447Z" fill="#10243D" fill-opacity="0.1" stroke="#10243D" stroke-opacity="0.65" stroke-width="1.17551"/>
<path d="M14.1709 28.6425C14.1709 24.4958 17.5329 21.1338 21.6796 21.1338C25.8263 21.1338 29.1883 24.4958 29.1883 28.6425" stroke="#10243D" stroke-width="1.37143" stroke-linecap="round"/>
<path d="M21.68 17.1451C24.1422 17.1451 26.1382 15.149 26.1382 12.6868C26.1382 10.2246 24.1422 8.22852 21.68 8.22852C19.2177 8.22852 17.2217 10.2246 17.2217 12.6868C17.2217 15.149 19.2177 17.1451 21.68 17.1451Z" stroke="#10243D" stroke-width="1.17551"/>
<g clip-path="url(#clip0_12_12893)">
<path d="M18.2717 3.45698V5.97126C18.2717 6.09629 18.222 6.2162 18.1336 6.30461C18.0452 6.39302 17.9253 6.44269 17.8003 6.44269H15.286C15.1609 6.44269 15.041 6.39302 14.9526 6.30461C14.8642 6.2162 14.8145 6.09629 14.8145 5.97126C14.8145 5.84623 14.8642 5.72632 14.9526 5.63791C15.041 5.5495 15.1609 5.49983 15.286 5.49983H16.657L16.0489 4.89601C15.5875 4.43425 14.9995 4.11971 14.3593 3.99216C13.7191 3.86462 13.0555 3.92981 12.4523 4.17948C11.8492 4.42916 11.3337 4.8521 10.9709 5.39481C10.6082 5.93753 10.4146 6.57563 10.4145 7.2284C10.4145 7.35343 10.3649 7.47334 10.2765 7.56175C10.188 7.65016 10.0681 7.69983 9.94311 7.69983C9.81808 7.69983 9.69817 7.65016 9.60976 7.56175C9.52135 7.47334 9.47168 7.35343 9.47168 7.2284C9.47164 6.38922 9.72046 5.56887 10.1867 4.8711C10.6529 4.17333 11.3155 3.62948 12.0908 3.30833C12.8661 2.98718 13.7193 2.90316 14.5423 3.06689C15.3654 3.23062 16.1214 3.63474 16.7148 4.22815L17.3288 4.83826V3.45698C17.3288 3.33195 17.3785 3.21204 17.4669 3.12363C17.5553 3.03522 17.6752 2.98555 17.8003 2.98555C17.9253 2.98555 18.0452 3.03522 18.1336 3.12363C18.222 3.21204 18.2717 3.33195 18.2717 3.45698Z" fill="#10243D"/>
</g>
<defs>
<clipPath id="clip0_12_12893">
<rect width="10.0571" height="10.0571" fill="white" transform="translate(8.68555)"/>
</clipPath>
</defs>
</svg>
