<svg width="40" height="40" viewBox="0 0 40 40" fill="none" xmlns="http://www.w3.org/2000/svg">
<path opacity="0.15" d="M33.125 8.75H6.875C5.14911 8.75 3.75 10.1491 3.75 11.875V26.875C3.75 28.6009 5.14911 30 6.875 30H33.125C34.8509 30 36.25 28.6009 36.25 26.875V11.875C36.25 10.1491 34.8509 8.75 33.125 8.75Z" fill="white"/>
<path d="M33.125 8.75H6.875C5.14911 8.75 3.75 10.1491 3.75 11.875V26.875C3.75 28.6009 5.14911 30 6.875 30H33.125C34.8509 30 36.25 28.6009 36.25 26.875V11.875C36.25 10.1491 34.8509 8.75 33.125 8.75Z" stroke="white" stroke-width="1.3"/>
<path opacity="0.5" d="M12.5 35H27.5M20 30V35" stroke="white" stroke-width="1.5" stroke-linecap="round"/>
<path opacity="0.25" d="M28.75 19.375C31.5114 19.375 33.75 17.1364 33.75 14.375C33.75 11.6136 31.5114 9.375 28.75 9.375C25.9886 9.375 23.75 11.6136 23.75 14.375C23.75 17.1364 25.9886 19.375 28.75 19.375Z" fill="white"/>
<path d="M28.75 19.375C31.5114 19.375 33.75 17.1364 33.75 14.375C33.75 11.6136 31.5114 9.375 28.75 9.375C25.9886 9.375 23.75 11.6136 23.75 14.375C23.75 17.1364 25.9886 19.375 28.75 19.375Z" stroke="white" stroke-width="1.2"/>
<path d="M26.5 14.375L28.375 16.25L31.5 13.125" stroke="white" stroke-width="1.3" stroke-linecap="round" stroke-linejoin="round"/>
<path opacity="0.3" d="M6.25 17.5H21.25M6.25 22.5H17.5" stroke="white" stroke-width="1.2" stroke-linecap="round"/>
</svg>
