<svg width="40" height="40" viewBox="0 0 40 40" fill="none" xmlns="http://www.w3.org/2000/svg">
<path opacity="0.15" d="M20 35C28.2843 35 35 28.2843 35 20C35 11.7157 28.2843 5 20 5C11.7157 5 5 11.7157 5 20C5 28.2843 11.7157 35 20 35Z" fill="white"/>
<path d="M27.5 12.5L12.5 27.5" stroke="white" stroke-width="2.5" stroke-linecap="round"/>
<path d="M13.75 18.125C15.8211 18.125 17.5 16.4461 17.5 14.375C17.5 12.3039 15.8211 10.625 13.75 10.625C11.6789 10.625 10 12.3039 10 14.375C10 16.4461 11.6789 18.125 13.75 18.125Z" fill="white"/>
<path d="M26.25 29.375C28.3211 29.375 30 27.6961 30 25.625C30 23.5539 28.3211 21.875 26.25 21.875C24.1789 21.875 22.5 23.5539 22.5 25.625C22.5 27.6961 24.1789 29.375 26.25 29.375Z" fill="white"/>
</svg>
