<svg width="40" height="40" viewBox="0 0 40 40" fill="none" xmlns="http://www.w3.org/2000/svg">
<path opacity="0.15" d="M29.375 3.75H10.625C8.89911 3.75 7.5 5.14911 7.5 6.875V33.125C7.5 34.8509 8.89911 36.25 10.625 36.25H29.375C31.1009 36.25 32.5 34.8509 32.5 33.125V6.875C32.5 5.14911 31.1009 3.75 29.375 3.75Z" fill="white"/>
<path d="M29.375 3.75H10.625C8.89911 3.75 7.5 5.14911 7.5 6.875V33.125C7.5 34.8509 8.89911 36.25 10.625 36.25H29.375C31.1009 36.25 32.5 34.8509 32.5 33.125V6.875C32.5 5.14911 31.1009 3.75 29.375 3.75Z" stroke="white" stroke-width="1.3"/>
<path opacity="0.2" d="M20 23.75C23.4518 23.75 26.25 20.9518 26.25 17.5C26.25 14.0482 23.4518 11.25 20 11.25C16.5482 11.25 13.75 14.0482 13.75 17.5C13.75 20.9518 16.5482 23.75 20 23.75Z" fill="white"/>
<path d="M20 23.75C23.4518 23.75 26.25 20.9518 26.25 17.5C26.25 14.0482 23.4518 11.25 20 11.25C16.5482 11.25 13.75 14.0482 13.75 17.5C13.75 20.9518 16.5482 23.75 20 23.75Z" stroke="white" stroke-width="1.3"/>
<path opacity="0.5" d="M20 23.75C21.7259 23.75 23.125 20.9518 23.125 17.5C23.125 14.0482 21.7259 11.25 20 11.25C18.2741 11.25 16.875 14.0482 16.875 17.5C16.875 20.9518 18.2741 23.75 20 23.75Z" stroke="white"/>
<path opacity="0.4" d="M14.375 17.5H25.625" stroke="white"/>
<path opacity="0.5" d="M25.3125 27.5H14.6875C14.1697 27.5 13.75 27.9197 13.75 28.4375C13.75 28.9553 14.1697 29.375 14.6875 29.375H25.3125C25.8303 29.375 26.25 28.9553 26.25 28.4375C26.25 27.9197 25.8303 27.5 25.3125 27.5Z" fill="white"/>
</svg>
