<svg width="40" height="40" viewBox="0 0 40 40" fill="none" xmlns="http://www.w3.org/2000/svg">
<path d="M20 13.75C22.7614 13.75 25 11.5114 25 8.75C25 5.98858 22.7614 3.75 20 3.75C17.2386 3.75 15 5.98858 15 8.75C15 11.5114 17.2386 13.75 20 13.75Z" fill="white"/>
<path opacity="0.8" d="M10 31.875C12.4162 31.875 14.375 29.9162 14.375 27.5C14.375 25.0838 12.4162 23.125 10 23.125C7.58375 23.125 5.625 25.0838 5.625 27.5C5.625 29.9162 7.58375 31.875 10 31.875Z" fill="white"/>
<path opacity="0.8" d="M30 31.875C32.4162 31.875 34.375 29.9162 34.375 27.5C34.375 25.0838 32.4162 23.125 30 23.125C27.5838 23.125 25.625 25.0838 25.625 27.5C25.625 29.9162 27.5838 31.875 30 31.875Z" fill="white"/>
<path d="M20 13.75V17.5M20 17.5L10 23.75M20 17.5L30 23.75" stroke="white" stroke-width="1.8" stroke-linecap="round" stroke-linejoin="round"/>
</svg>
