<svg width="40" height="35" viewBox="0 0 40 35" fill="none" xmlns="http://www.w3.org/2000/svg">
<path d="M12.6532 18.9796C16.3726 18.9796 19.3878 15.9644 19.3878 12.2449C19.3878 8.52548 16.3726 5.51025 12.6532 5.51025C8.93368 5.51025 5.91846 8.52548 5.91846 12.2449C5.91846 15.9644 8.93368 18.9796 12.6532 18.9796Z" fill="white" fill-opacity="0.15"/>
<path d="M24.898 19.5918C27.603 19.5918 29.7959 17.3989 29.7959 14.6939C29.7959 11.9888 27.603 9.7959 24.898 9.7959C22.1929 9.7959 20 11.9888 20 14.6939C20 17.3989 22.1929 19.5918 24.898 19.5918Z" fill="white" fill-opacity="0.12"/>
<path d="M32.245 20.2039C34.2738 20.2039 35.9185 18.5592 35.9185 16.5304C35.9185 14.5016 34.2738 12.8569 32.245 12.8569C30.2162 12.8569 28.5715 14.5016 28.5715 16.5304C28.5715 18.5592 30.2162 20.2039 32.245 20.2039Z" fill="white" fill-opacity="0.1"/>
<path d="M2.85718 33.0611C2.85718 27.6513 7.2433 23.2651 12.6531 23.2651C18.0629 23.2651 22.449 27.6513 22.449 33.0611" fill="white" fill-opacity="0.1"/>
<path d="M17.551 33.0613C17.551 29.0033 20.84 25.7144 24.898 25.7144C28.9559 25.7144 32.2449 29.0033 32.2449 33.0613" fill="white" fill-opacity="0.07"/>
<path d="M27.3469 33.061C27.3469 30.3561 29.54 28.1631 32.2449 28.1631C34.9498 28.1631 37.1428 30.3561 37.1428 33.061" fill="white" fill-opacity="0.06"/>
<path d="M12.653 18.0614C15.8653 18.0614 18.4693 15.4573 18.4693 12.245C18.4693 9.03277 15.8653 6.42871 12.653 6.42871C9.44073 6.42871 6.83667 9.03277 6.83667 12.245C6.83667 15.4573 9.44073 18.0614 12.653 18.0614Z" stroke="white" stroke-width="1.28571"/>
<path d="M24.898 18.6735C27.0959 18.6735 28.8776 16.8918 28.8776 14.6939C28.8776 12.4961 27.0959 10.7144 24.898 10.7144C22.7002 10.7144 20.9185 12.4961 20.9185 14.6939C20.9185 16.8918 22.7002 18.6735 24.898 18.6735Z" stroke="white" stroke-opacity="0.65" stroke-width="1.2"/>
<path d="M32.2448 19.5917C33.9355 19.5917 35.306 18.2211 35.306 16.5305C35.306 14.8398 33.9355 13.4692 32.2448 13.4692C30.5542 13.4692 29.1836 14.8398 29.1836 16.5305C29.1836 18.2211 30.5542 19.5917 32.2448 19.5917Z" stroke="white" stroke-opacity="0.45" stroke-width="1.02857"/>
<path d="M4.08154 33.0612C4.08154 28.3273 7.91909 24.4897 12.653 24.4897C17.3868 24.4897 21.2244 28.3273 21.2244 33.0612" stroke="white" stroke-width="1.28571" stroke-linecap="round"/>
<path d="M18.7754 33.0614C18.7754 29.6806 21.517 26.939 24.8978 26.939C28.2787 26.939 31.0203 29.6806 31.0203 33.0614" stroke="white" stroke-opacity="0.55" stroke-width="1.2" stroke-linecap="round"/>
<path d="M28.5715 33.0612C28.5715 31.0322 30.216 29.3877 32.245 29.3877C34.274 29.3877 35.9185 31.0322 35.9185 33.0612" stroke="white" stroke-opacity="0.4" stroke-width="1.02857" stroke-linecap="round"/>
</svg>
