<svg width="40" height="35" viewBox="0 0 40 35" fill="none" xmlns="http://www.w3.org/2000/svg">
<path d="M12.6527 18.9792C16.3721 18.9792 19.3874 15.9639 19.3874 12.2445C19.3874 8.52499 16.3721 5.50977 12.6527 5.50977C8.93319 5.50977 5.91797 8.52499 5.91797 12.2445C5.91797 15.9639 8.93319 18.9792 12.6527 18.9792Z" fill="#10243D" fill-opacity="0.15"/>
<path d="M24.898 19.5918C27.603 19.5918 29.7959 17.3989 29.7959 14.6939C29.7959 11.9888 27.603 9.7959 24.898 9.7959C22.1929 9.7959 20 11.9888 20 14.6939C20 17.3989 22.1929 19.5918 24.898 19.5918Z" fill="#10243D" fill-opacity="0.12"/>
<path d="M32.2448 20.2044C34.2736 20.2044 35.9182 18.5597 35.9182 16.5309C35.9182 14.5021 34.2736 12.8574 32.2448 12.8574C30.216 12.8574 28.5713 14.5021 28.5713 16.5309C28.5713 18.5597 30.216 20.2044 32.2448 20.2044Z" fill="#10243D" fill-opacity="0.1"/>
<path d="M2.85742 33.0615C2.85742 27.6517 7.24354 23.2656 12.6533 23.2656C18.0631 23.2656 22.4493 27.6517 22.4493 33.0615" fill="#10243D" fill-opacity="0.1"/>
<path d="M17.5508 33.0608C17.5508 29.0028 20.8398 25.7139 24.8977 25.7139C28.9557 25.7139 32.2447 29.0028 32.2447 33.0608" fill="#10243D" fill-opacity="0.07"/>
<path d="M27.3467 33.061C27.3467 30.3561 29.5397 28.1631 32.2446 28.1631C34.9495 28.1631 37.1426 30.3561 37.1426 33.061" fill="#10243D" fill-opacity="0.06"/>
<path d="M12.6532 18.0614C15.8655 18.0614 18.4696 15.4573 18.4696 12.245C18.4696 9.03277 15.8655 6.42871 12.6532 6.42871C9.44097 6.42871 6.83691 9.03277 6.83691 12.245C6.83691 15.4573 9.44097 18.0614 12.6532 18.0614Z" stroke="#10243D" stroke-width="1.28571"/>
<path d="M24.8976 18.6731C27.0954 18.6731 28.8772 16.8913 28.8772 14.6935C28.8772 12.4956 27.0954 10.7139 24.8976 10.7139C22.6997 10.7139 20.918 12.4956 20.918 14.6935C20.918 16.8913 22.6997 18.6731 24.8976 18.6731Z" stroke="#10243D" stroke-opacity="0.65" stroke-width="1.2"/>
<path d="M32.2448 19.5922C33.9355 19.5922 35.306 18.2216 35.306 16.531C35.306 14.8403 33.9355 13.4697 32.2448 13.4697C30.5542 13.4697 29.1836 14.8403 29.1836 16.531C29.1836 18.2216 30.5542 19.5922 32.2448 19.5922Z" stroke="#10243D" stroke-opacity="0.45" stroke-width="1.02857"/>
<path d="M4.08203 33.0617C4.08203 28.3278 7.91958 24.4902 12.6535 24.4902C17.3873 24.4902 21.2249 28.3278 21.2249 33.0617" stroke="#10243D" stroke-width="1.28571" stroke-linecap="round"/>
<path d="M18.7754 33.0609C18.7754 29.6801 21.517 26.9385 24.8978 26.9385C28.2787 26.9385 31.0203 29.6801 31.0203 33.0609" stroke="#10243D" stroke-opacity="0.55" stroke-width="1.2" stroke-linecap="round"/>
<path d="M28.5713 33.0612C28.5713 31.0322 30.2158 29.3877 32.2448 29.3877C34.2737 29.3877 35.9182 31.0322 35.9182 33.0612" stroke="#10243D" stroke-opacity="0.4" stroke-width="1.02857" stroke-linecap="round"/>
</svg>
