<svg width="40" height="40" viewBox="0 0 40 40" fill="none" xmlns="http://www.w3.org/2000/svg">
<path d="M33.164 11.9974C33.0522 11.7276 32.8883 11.4825 32.6817 11.2762C32.4754 11.0696 32.2303 10.9057 31.9606 10.7939C31.6908 10.6821 31.4017 10.6245 31.1097 10.6245C30.8177 10.6245 30.5286 10.6821 30.2588 10.7939C29.9891 10.9057 29.744 11.0696 29.5376 11.2762L15.5559 25.2607L10.462 20.1641C10.0451 19.7471 9.47959 19.5129 8.88996 19.5129C8.30033 19.5129 7.73484 19.7471 7.31791 20.1641C6.90098 20.581 6.66675 21.1465 6.66675 21.7361C6.66675 22.3258 6.90098 22.8912 7.31791 23.3082L13.9838 29.9741C14.1902 30.1807 14.4353 30.3446 14.705 30.4564C14.9747 30.5682 15.2639 30.6258 15.5559 30.6258C15.8479 30.6258 16.137 30.5682 16.4068 30.4564C16.6765 30.3446 16.9216 30.1807 17.1279 29.9741L32.6817 14.4203C32.8883 14.2139 33.0522 13.9689 33.164 13.6991C33.2759 13.4294 33.3334 13.1402 33.3334 12.8482C33.3334 12.5562 33.2759 12.2671 33.164 11.9974Z" fill="white"/>
</svg>
