<svg width="40" height="40" viewBox="0 0 40 40" fill="none" xmlns="http://www.w3.org/2000/svg">
<path d="M34.6875 33.75H5.3125C4.44956 33.75 3.75 34.4496 3.75 35.3125C3.75 36.1754 4.44956 36.875 5.3125 36.875H34.6875C35.5504 36.875 36.25 36.1754 36.25 35.3125C36.25 34.4496 35.5504 33.75 34.6875 33.75Z" fill="white" fill-opacity="0.15"/>
<path opacity="0.5" d="M5.3125 18H34.6875C35.2743 18 35.75 18.4757 35.75 19.0625C35.75 19.6493 35.2743 20.125 34.6875 20.125H5.3125C4.7257 20.125 4.25 19.6493 4.25 19.0625C4.25 18.4757 4.7257 18 5.3125 18Z" fill="white" fill-opacity="0.1" stroke="white"/>
<path opacity="0.7" d="M7.5 21.125H9.375C9.78921 21.125 10.125 21.4608 10.125 21.875V32.5C10.125 32.9142 9.78921 33.25 9.375 33.25H7.5C7.08579 33.25 6.75 32.9142 6.75 32.5V21.875C6.75 21.4608 7.08579 21.125 7.5 21.125Z" fill="white" stroke="white"/>
<path opacity="0.7" d="M14.375 21.125H16.25C16.6642 21.125 17 21.4608 17 21.875V32.5C17 32.9142 16.6642 33.25 16.25 33.25H14.375C13.9608 33.25 13.625 32.9142 13.625 32.5V21.875C13.625 21.4608 13.9608 21.125 14.375 21.125Z" fill="white" stroke="white"/>
<path opacity="0.7" d="M23.75 21.125H25.625C26.0392 21.125 26.375 21.4608 26.375 21.875V32.5C26.375 32.9142 26.0392 33.25 25.625 33.25H23.75C23.3358 33.25 23 32.9142 23 32.5V21.875C23 21.4608 23.3358 21.125 23.75 21.125Z" fill="white" stroke="white"/>
<path opacity="0.7" d="M30.625 21.125H32.5C32.9142 21.125 33.25 21.4608 33.25 21.875V32.5C33.25 32.9142 32.9142 33.25 32.5 33.25H30.625C30.2108 33.25 29.875 32.9142 29.875 32.5V21.875C29.875 21.4608 30.2108 21.125 30.625 21.125Z" fill="white" stroke="white"/>
<path d="M20 5L3.75 15H36.25L20 5Z" fill="white"/>
<path opacity="0.6" d="M20 14.375C21.0355 14.375 21.875 13.5355 21.875 12.5C21.875 11.4645 21.0355 10.625 20 10.625C18.9645 10.625 18.125 11.4645 18.125 12.5C18.125 13.5355 18.9645 14.375 20 14.375Z" fill="white"/>
</svg>
