<svg width="40" height="40" viewBox="0 0 40 40" fill="none" xmlns="http://www.w3.org/2000/svg">
<g opacity="0.8">
<path opacity="0.2" d="M20 3.75C16.6848 3.75 13.5054 5.06696 11.1612 7.41117C8.81696 9.75537 7.5 12.9348 7.5 16.25C7.5 27.5 20 36.25 20 36.25C20 36.25 32.5 27.5 32.5 16.25C32.5 12.9348 31.183 9.75537 28.8388 7.41117C26.4946 5.06696 23.3152 3.75 20 3.75ZM20 21.25C19.0111 21.25 18.0444 20.9568 17.2221 20.4073C16.3999 19.8579 15.759 19.077 15.3806 18.1634C15.0022 17.2498 14.9031 16.2445 15.0961 15.2745C15.289 14.3046 15.7652 13.4137 16.4645 12.7145C17.1637 12.0152 18.0546 11.539 19.0245 11.3461C19.9945 11.1531 20.9998 11.2522 21.9134 11.6306C22.827 12.009 23.6079 12.6499 24.1573 13.4721C24.7068 14.2944 25 15.2611 25 16.25C25 17.5761 24.4732 18.8479 23.5355 19.7855C22.5979 20.7232 21.3261 21.25 20 21.25Z" fill="white"/>
<path d="M20 10C18.7639 10 17.5555 10.3666 16.5277 11.0533C15.4999 11.7401 14.6988 12.7162 14.2258 13.8582C13.7527 15.0003 13.6289 16.2569 13.8701 17.4693C14.1112 18.6817 14.7065 19.7953 15.5806 20.6694C16.4547 21.5435 17.5683 22.1388 18.7807 22.3799C19.9931 22.6211 21.2497 22.4973 22.3918 22.0242C23.5338 21.5512 24.5099 20.7501 25.1967 19.7223C25.8834 18.6945 26.25 17.4861 26.25 16.25C26.25 14.5924 25.5915 13.0027 24.4194 11.8306C23.2473 10.6585 21.6576 10 20 10ZM20 20C19.2583 20 18.5333 19.7801 17.9166 19.368C17.2999 18.956 16.8193 18.3703 16.5355 17.6851C16.2516 16.9998 16.1774 16.2458 16.3221 15.5184C16.4667 14.791 16.8239 14.1228 17.3483 13.5983C17.8728 13.0739 18.541 12.7167 19.2684 12.5721C19.9958 12.4274 20.7498 12.5016 21.4351 12.7855C22.1203 13.0693 22.706 13.5499 23.118 14.1666C23.5301 14.7833 23.75 15.5083 23.75 16.25C23.75 17.2446 23.3549 18.1984 22.6517 18.9017C21.9484 19.6049 20.9946 20 20 20ZM20 2.5C16.3545 2.50414 12.8596 3.95412 10.2818 6.53185C7.70412 9.10958 6.25414 12.6045 6.25 16.25C6.25 21.1562 8.51719 26.3563 12.8125 31.2891C14.7425 33.5181 16.9148 35.5252 19.2891 37.2734C19.4992 37.4207 19.7496 37.4996 20.0062 37.4996C20.2629 37.4996 20.5133 37.4207 20.7234 37.2734C23.0934 35.5245 25.2614 33.5174 27.1875 31.2891C31.4766 26.3563 33.75 21.1562 33.75 16.25C33.7459 12.6045 32.2959 9.10958 29.7182 6.53185C27.1404 3.95412 23.6455 2.50414 20 2.5ZM20 34.6875C17.4172 32.6562 8.75 25.1953 8.75 16.25C8.75 13.2663 9.93526 10.4048 12.045 8.29505C14.1548 6.18526 17.0163 5 20 5C22.9837 5 25.8452 6.18526 27.955 8.29505C30.0647 10.4048 31.25 13.2663 31.25 16.25C31.25 25.1922 22.5828 32.6562 20 34.6875Z" fill="white"/>
</g>
</svg>
