<svg width="32" height="32" viewBox="0 0 32 32" fill="none" xmlns="http://www.w3.org/2000/svg">
<path opacity="0.2" d="M26 11H6C5.73478 11 5.48043 11.1054 5.29289 11.2929C5.10536 11.4804 5 11.7348 5 12V26C5 26.2652 5.10536 26.5196 5.29289 26.7071C5.48043 26.8946 5.73478 27 6 27H26C26.2652 27 26.5196 26.8946 26.7071 26.7071C26.8946 26.5196 27 26.2652 27 26V12C27 11.7348 26.8946 11.4804 26.7071 11.2929C26.5196 11.1054 26.2652 11 26 11ZM16 20C15.5055 20 15.0222 19.8534 14.6111 19.5787C14.2 19.304 13.8795 18.9135 13.6903 18.4567C13.5011 17.9999 13.4516 17.4972 13.548 17.0123C13.6445 16.5273 13.8826 16.0819 14.2322 15.7322C14.5819 15.3826 15.0273 15.1445 15.5123 15.048C15.9972 14.9516 16.4999 15.0011 16.9567 15.1903C17.4135 15.3795 17.804 15.7 18.0787 16.1111C18.3534 16.5222 18.5 17.0055 18.5 17.5C18.5 18.163 18.2366 18.7989 17.7678 19.2678C17.2989 19.7366 16.663 20 16 20Z" fill="black"/>
<path d="M26 10H22V7C22 5.4087 21.3679 3.88258 20.2426 2.75736C19.1174 1.63214 17.5913 1 16 1C14.4087 1 12.8826 1.63214 11.7574 2.75736C10.6321 3.88258 10 5.4087 10 7V10H6C5.46957 10 4.96086 10.2107 4.58579 10.5858C4.21071 10.9609 4 11.4696 4 12V26C4 26.5304 4.21071 27.0391 4.58579 27.4142C4.96086 27.7893 5.46957 28 6 28H26C26.5304 28 27.0391 27.7893 27.4142 27.4142C27.7893 27.0391 28 26.5304 28 26V12C28 11.4696 27.7893 10.9609 27.4142 10.5858C27.0391 10.2107 26.5304 10 26 10ZM12 7C12 5.93913 12.4214 4.92172 13.1716 4.17157C13.9217 3.42143 14.9391 3 16 3C17.0609 3 18.0783 3.42143 18.8284 4.17157C19.5786 4.92172 20 5.93913 20 7V10H12V7ZM26 26H6V12H26V26ZM16 14C15.1595 14.0003 14.3472 14.303 13.7115 14.8529C13.0758 15.4027 12.6592 16.163 12.5378 16.9947C12.4165 17.8264 12.5985 18.674 13.0506 19.3825C13.5027 20.0911 14.1946 20.6133 15 20.8538V23C15 23.2652 15.1054 23.5196 15.2929 23.7071C15.4804 23.8946 15.7348 24 16 24C16.2652 24 16.5196 23.8946 16.7071 23.7071C16.8946 23.5196 17 23.2652 17 23V20.8538C17.8054 20.6133 18.4973 20.0911 18.9494 19.3825C19.4015 18.674 19.5835 17.8264 19.4622 16.9947C19.3408 16.163 18.9242 15.4027 18.2885 14.8529C17.6528 14.303 16.8405 14.0003 16 14ZM16 19C15.7033 19 15.4133 18.912 15.1666 18.7472C14.92 18.5824 14.7277 18.3481 14.6142 18.074C14.5006 17.7999 14.4709 17.4983 14.5288 17.2074C14.5867 16.9164 14.7296 16.6491 14.9393 16.4393C15.1491 16.2296 15.4164 16.0867 15.7074 16.0288C15.9983 15.9709 16.2999 16.0007 16.574 16.1142C16.8481 16.2277 17.0824 16.42 17.2472 16.6666C17.412 16.9133 17.5 17.2033 17.5 17.5C17.5 17.8978 17.342 18.2794 17.0607 18.5607C16.7794 18.842 16.3978 19 16 19Z" fill="black"/>
</svg>
