<svg width="32" height="32" viewBox="0 0 32 32" fill="none" xmlns="http://www.w3.org/2000/svg">
<path opacity="0.15" d="M23.5 3H8.5C7.11929 3 6 4.11929 6 5.5V26.5C6 27.8807 7.11929 29 8.5 29H23.5C24.8807 29 26 27.8807 26 26.5V5.5C26 4.11929 24.8807 3 23.5 3Z" fill="#10243D" fill-opacity="0.15"/>
<path d="M23.5 3H8.5C7.11929 3 6 4.11929 6 5.5V26.5C6 27.8807 7.11929 29 8.5 29H23.5C24.8807 29 26 27.8807 26 26.5V5.5C26 4.11929 24.8807 3 23.5 3Z" fill="#10243D" fill-opacity="0.1" stroke="#10243D" stroke-width="1.3"/>
<path opacity="0.2" d="M16 9.5C18.4853 9.5 20.5 11.5147 20.5 14C20.5 16.4853 18.4853 18.5 16 18.5C13.5147 18.5 11.5 16.4853 11.5 14C11.5 11.5147 13.5147 9.5 16 9.5Z" fill="#10243D" stroke="#10243D"/>
<path d="M16 19C18.7614 19 21 16.7614 21 14C21 11.2386 18.7614 9 16 9C13.2386 9 11 11.2386 11 14C11 16.7614 13.2386 19 16 19Z" stroke="#10243D" stroke-width="1.3"/>
<path opacity="0.5" d="M16 19C17.3807 19 18.5 16.7614 18.5 14C18.5 11.2386 17.3807 9 16 9C14.6193 9 13.5 11.2386 13.5 14C13.5 16.7614 14.6193 19 16 19Z" stroke="#10243D"/>
<path opacity="0.4" d="M11.5 14H20.5" stroke="#10243D"/>
<path opacity="0.5" d="M20.25 22H11.75C11.3358 22 11 22.3358 11 22.75C11 23.1642 11.3358 23.5 11.75 23.5H20.25C20.6642 23.5 21 23.1642 21 22.75C21 22.3358 20.6642 22 20.25 22Z" fill="#10243D"/>
</svg>
