<svg width="112" height="36" viewBox="0 0 112 36" fill="none" xmlns="http://www.w3.org/2000/svg">
<g opacity="0.65">
<path d="M14 15C17.866 15 21 11.866 21 8C21 4.13401 17.866 1 14 1C10.134 1 7 4.13401 7 8C7 11.866 10.134 15 14 15Z" fill="white" fill-opacity="0.15"/>
<path d="M2 34C2 26.82 7.373 21 14 21C20.627 21 26 26.82 26 34" fill="white" fill-opacity="0.1"/>
<path d="M14 14.25C17.4518 14.25 20.25 11.4518 20.25 8C20.25 4.54822 17.4518 1.75 14 1.75C10.5482 1.75 7.75 4.54822 7.75 8C7.75 11.4518 10.5482 14.25 14 14.25Z" stroke="white" stroke-opacity="0.7" stroke-width="1.5"/>
<path d="M3 34C3 27.373 7.925 22 14 22C20.075 22 25 27.373 25 34" stroke="white" stroke-opacity="0.7" stroke-width="1.5" stroke-linecap="round"/>
</g>
<g opacity="0.65">
<path d="M46 15C49.866 15 53 11.866 53 8C53 4.13401 49.866 1 46 1C42.134 1 39 4.13401 39 8C39 11.866 42.134 15 46 15Z" fill="white" fill-opacity="0.15"/>
<path d="M34 34C34 26.82 39.373 21 46 21C52.627 21 58 26.82 58 34" fill="white" fill-opacity="0.1"/>
<path d="M46 14.25C49.4518 14.25 52.25 11.4518 52.25 8C52.25 4.54822 49.4518 1.75 46 1.75C42.5482 1.75 39.75 4.54822 39.75 8C39.75 11.4518 42.5482 14.25 46 14.25Z" stroke="white" stroke-opacity="0.7" stroke-width="1.5"/>
<path d="M35 34C35 27.373 39.925 22 46 22C52.075 22 57 27.373 57 34" stroke="white" stroke-opacity="0.7" stroke-width="1.5" stroke-linecap="round"/>
</g>
<g clip-path="url(#clip0_12_4255)">
<path d="M75 19.5C78.0376 19.5 80.5 17.0376 80.5 14C80.5 10.9624 78.0376 8.5 75 8.5C71.9624 8.5 69.5 10.9624 69.5 14C69.5 17.0376 71.9624 19.5 75 19.5Z" fill="white" fill-opacity="0.15"/>
<path d="M65.5703 34.4282C65.5703 28.7867 69.792 24.2139 74.9989 24.2139C80.2058 24.2139 84.4275 28.7867 84.4275 34.4282" fill="white" fill-opacity="0.1"/>
<path d="M75.0006 18.9103C77.7127 18.9103 79.9113 16.7117 79.9113 13.9996C79.9113 11.2875 77.7127 9.08887 75.0006 9.08887C72.2884 9.08887 70.0898 11.2875 70.0898 13.9996C70.0898 16.7117 72.2884 18.9103 75.0006 18.9103Z" stroke="white" stroke-opacity="0.7" stroke-width="1.5"/>
<path d="M66.3555 34.4286C66.3555 29.2216 70.2251 25 74.9983 25C79.7715 25 83.6412 29.2216 83.6412 34.4286" stroke="white" stroke-opacity="0.7" stroke-width="1.5" stroke-linecap="round"/>
</g>
<g clip-path="url(#clip1_12_4255)">
<path d="M101 19.5C104.038 19.5 106.5 17.0376 106.5 14C106.5 10.9624 104.038 8.5 101 8.5C97.9624 8.5 95.5 10.9624 95.5 14C95.5 17.0376 97.9624 19.5 101 19.5Z" fill="white" fill-opacity="0.15"/>
<path d="M91.5703 34.4282C91.5703 28.7867 95.792 24.2139 100.999 24.2139C106.206 24.2139 110.427 28.7867 110.427 34.4282" fill="white" fill-opacity="0.1"/>
<path d="M101.001 18.9103C103.713 18.9103 105.911 16.7117 105.911 13.9996C105.911 11.2875 103.713 9.08887 101.001 9.08887C98.2884 9.08887 96.0898 11.2875 96.0898 13.9996C96.0898 16.7117 98.2884 18.9103 101.001 18.9103Z" stroke="white" stroke-opacity="0.7" stroke-width="1.5"/>
<path d="M92.3555 34.4286C92.3555 29.2216 96.2251 25 100.998 25C105.772 25 109.641 29.2216 109.641 34.4286" stroke="white" stroke-opacity="0.7" stroke-width="1.5" stroke-linecap="round"/>
</g>
<defs>
<clipPath id="clip0_12_4255">
<rect width="22" height="28.2857" fill="white" transform="translate(64 7.71387)"/>
</clipPath>
<clipPath id="clip1_12_4255">
<rect width="22" height="28.2857" fill="white" transform="translate(90 7.71387)"/>
</clipPath>
</defs>
</svg>
