<svg width="28" height="36" viewBox="0 0 28 36" fill="none" xmlns="http://www.w3.org/2000/svg">
<g opacity="0.65">
<path d="M14 15C17.866 15 21 11.866 21 8C21 4.13401 17.866 1 14 1C10.134 1 7 4.13401 7 8C7 11.866 10.134 15 14 15Z" fill="white" fill-opacity="0.15"/>
<path d="M2 34C2 26.82 7.373 21 14 21C20.627 21 26 26.82 26 34" fill="white" fill-opacity="0.1"/>
<path d="M14 14.25C17.4518 14.25 20.25 11.4518 20.25 8C20.25 4.54822 17.4518 1.75 14 1.75C10.5482 1.75 7.75 4.54822 7.75 8C7.75 11.4518 10.5482 14.25 14 14.25Z" stroke="white" stroke-opacity="0.7" stroke-width="1.5"/>
<path d="M3 34C3 27.373 7.925 22 14 22C20.075 22 25 27.373 25 34" stroke="white" stroke-opacity="0.7" stroke-width="1.5" stroke-linecap="round"/>
</g>
</svg>
