<svg width="40" height="40" viewBox="0 0 40 40" fill="none" xmlns="http://www.w3.org/2000/svg">
<g clip-path="url(#clip0_12_12853)">
<path opacity="0.2" d="M36.2636 3.00851L34.8369 4.23898L35.2728 6.07853C35.2843 6.12581 35.2816 6.17544 35.2649 6.22115C35.2482 6.26686 35.2184 6.3066 35.1791 6.33536C35.1399 6.36411 35.093 6.38058 35.0444 6.38268C34.9957 6.38479 34.9476 6.37244 34.906 6.34718L33.3029 5.36105L31.6997 6.34689C31.6582 6.37214 31.61 6.3845 31.5614 6.38239C31.5128 6.38028 31.4659 6.36382 31.4266 6.33506C31.3874 6.30631 31.3575 6.26657 31.3408 6.22086C31.3242 6.17514 31.3214 6.12551 31.333 6.07824L31.7689 4.23869L30.3421 3.00822C30.3058 2.97628 30.2795 2.93438 30.2667 2.88771C30.2538 2.84103 30.255 2.79161 30.2699 2.74556C30.2848 2.69951 30.3129 2.65884 30.3507 2.62856C30.3884 2.59829 30.4343 2.57974 30.4825 2.57521L32.3548 2.42287L33.0761 0.676775C33.0945 0.631727 33.1259 0.593178 33.1663 0.566042C33.2067 0.538906 33.2542 0.524414 33.3029 0.524414C33.3515 0.524414 33.3991 0.538906 33.4395 0.566042C33.4799 0.593178 33.5112 0.631727 33.5296 0.676775L34.2509 2.42287L36.1233 2.57521C36.1715 2.57969 36.2174 2.59822 36.2553 2.62851C36.2931 2.6588 36.3212 2.69953 36.3362 2.74564C36.3511 2.79175 36.3522 2.84123 36.3393 2.88795C36.3264 2.93467 36.3001 2.97659 36.2636 3.00851Z" fill="#10243D"/>
<path d="M36.5598 2.67066C36.5304 2.58058 36.4751 2.50119 36.4008 2.44249C36.3265 2.38378 36.2364 2.34839 36.142 2.34078L34.4135 2.20133L33.7461 0.587362C33.71 0.499417 33.6486 0.424192 33.5696 0.37125C33.4906 0.318307 33.3977 0.290039 33.3027 0.290039C33.2076 0.290039 33.1147 0.318307 33.0357 0.37125C32.9568 0.424192 32.8954 0.499417 32.8593 0.587362L32.1925 2.20103L30.4631 2.34078C30.3685 2.34878 30.2784 2.38451 30.204 2.4435C30.1297 2.50248 30.0744 2.5821 30.0451 2.67238C30.0157 2.76265 30.0137 2.85957 30.0393 2.95099C30.0648 3.04241 30.1167 3.12426 30.1886 3.18629L31.5069 4.32389L31.1053 6.02486C31.0828 6.11727 31.0883 6.21427 31.1211 6.30355C31.1538 6.39283 31.2124 6.47036 31.2893 6.5263C31.3662 6.58224 31.458 6.61407 31.553 6.61774C31.6481 6.62141 31.742 6.59677 31.823 6.54693L33.3025 5.63639L34.7829 6.54693C34.8639 6.59618 34.9577 6.62035 35.0524 6.6164C35.1472 6.61245 35.2386 6.58056 35.3153 6.52474C35.3919 6.46892 35.4503 6.39167 35.4832 6.30272C35.516 6.21377 35.5218 6.11709 35.4998 6.02486L35.0967 4.32359L36.415 3.18599C36.4874 3.12407 36.5399 3.04204 36.5656 2.9503C36.5914 2.85856 36.5893 2.76124 36.5598 2.67066ZM36.1103 2.83092L34.6836 4.06139C34.651 4.08943 34.6268 4.12588 34.6136 4.16675C34.6004 4.20761 34.5986 4.25133 34.6086 4.29312L35.0445 6.13297C35.0456 6.1355 35.0458 6.13838 35.0448 6.14099C35.0439 6.14361 35.042 6.14577 35.0395 6.14703C35.0343 6.15113 35.0328 6.15025 35.0284 6.14703L33.4253 5.16119C33.3884 5.13849 33.3459 5.12647 33.3025 5.12647C33.2592 5.12647 33.2167 5.13849 33.1798 5.16119L31.5766 6.14762C31.5723 6.15025 31.5711 6.15113 31.5655 6.14762C31.563 6.14636 31.5611 6.14419 31.5602 6.14158C31.5593 6.13896 31.5594 6.13609 31.5605 6.13355L31.9965 4.29371C32.0064 4.25192 32.0047 4.2082 31.9914 4.16733C31.9782 4.12646 31.954 4.09002 31.9215 4.06197L30.4947 2.8315C30.4912 2.82857 30.488 2.82594 30.4909 2.81685C30.4938 2.80777 30.4962 2.80894 30.5006 2.80836L32.3732 2.65719C32.4162 2.6535 32.4573 2.63804 32.492 2.61251C32.5268 2.58697 32.5538 2.55236 32.5701 2.51246L33.2914 0.766073C33.2937 0.761092 33.2946 0.758748 33.3016 0.758748C33.3087 0.758748 33.3096 0.761092 33.3119 0.766073L34.0349 2.51246C34.0514 2.55237 34.0786 2.58695 34.1135 2.61239C34.1484 2.63782 34.1897 2.65312 34.2327 2.6566L36.1054 2.80777C36.1098 2.80777 36.1124 2.80777 36.115 2.81627C36.1177 2.82476 36.115 2.82799 36.1103 2.83092Z" fill="#10243D"/>
<path d="M20 17.0537C23.797 17.0537 26.875 13.9757 26.875 10.1787C26.875 6.38175 23.797 3.30371 20 3.30371C16.203 3.30371 13.125 6.38175 13.125 10.1787C13.125 13.9757 16.203 17.0537 20 17.0537Z" fill="#10243D" fill-opacity="0.15"/>
<path d="M8.21387 35.7141C8.21387 28.6624 13.4909 22.9463 19.9996 22.9463C26.5082 22.9463 31.7853 28.6624 31.7853 35.7141" fill="#10243D" fill-opacity="0.1"/>
<path d="M19.9997 16.3168C23.3899 16.3168 26.1381 13.5686 26.1381 10.1784C26.1381 6.78829 23.3899 4.04004 19.9997 4.04004C16.6096 4.04004 13.8613 6.78829 13.8613 10.1784C13.8613 13.5686 16.6096 16.3168 19.9997 16.3168Z" stroke="#10243D" stroke-width="1.875"/>
<path d="M9.19629 35.7144C9.19629 29.2058 14.0333 23.9287 19.9999 23.9287C25.9664 23.9287 30.8034 29.2058 30.8034 35.7144" stroke="#10243D" stroke-width="1.875" stroke-linecap="round"/>
</g>
<defs>
<clipPath id="clip0_12_12853">
<rect width="40" height="40" fill="white"/>
</clipPath>
</defs>
</svg>
