<svg width="32" height="32" viewBox="0 0 32 32" fill="none" xmlns="http://www.w3.org/2000/svg">
<path d="M16 13.6426C19.0376 13.6426 21.5 11.1801 21.5 8.14258C21.5 5.10501 19.0376 2.64258 16 2.64258C12.9624 2.64258 10.5 5.10501 10.5 8.14258C10.5 11.1801 12.9624 13.6426 16 13.6426Z" fill="#10243D" fill-opacity="0.15"/>
<path d="M6.57227 28.5712C6.57227 22.9298 10.7939 18.3569 16.0008 18.3569C21.2078 18.3569 25.4294 22.9298 25.4294 28.5712" fill="#10243D" fill-opacity="0.1"/>
<path d="M16.0006 13.0534C18.7127 13.0534 20.9113 10.8548 20.9113 8.14265C20.9113 5.43054 18.7127 3.23193 16.0006 3.23193C13.2884 3.23193 11.0898 5.43054 11.0898 8.14265C11.0898 10.8548 13.2884 13.0534 16.0006 13.0534Z" stroke="#10243D" stroke-width="1.5"/>
<path d="M7.35742 28.5711C7.35742 23.3642 11.2271 19.1426 16.0003 19.1426C20.7735 19.1426 24.6431 23.3642 24.6431 28.5711" stroke="#10243D" stroke-width="1.5" stroke-linecap="round"/>
</svg>
