<svg width="33" height="33" viewBox="0 0 33 33" fill="none" xmlns="http://www.w3.org/2000/svg">
<path d="M27.5732 4.69636C26.086 3.20211 24.3147 2.01733 22.3627 1.21105C20.4106 0.404771 18.3168 -0.00688006 16.2033 8.6978e-05C7.34744 8.6978e-05 0.129756 7.18167 0.129756 15.9932C0.129756 18.8174 0.875854 21.561 2.27073 23.9817L0 32.2768L8.51525 30.0498C10.8671 31.3247 13.5109 32.0025 16.2033 32.0025C25.0592 32.0025 32.2768 24.8209 32.2768 16.0094C32.2768 11.7327 30.6062 7.71423 27.5732 4.69636ZM16.2033 29.2912C13.8028 29.2912 11.451 28.6457 9.3911 27.4353L8.90452 27.1448L3.84403 28.4682L5.19025 23.5621L4.86586 23.0618C3.53188 20.943 2.8237 18.4935 2.8222 15.9932C2.8222 8.6664 8.82342 2.6952 16.1871 2.6952C19.7554 2.6952 23.1128 4.0831 25.6268 6.60068C26.8719 7.83344 27.8585 9.2999 28.5295 10.915C29.2005 12.5301 29.5426 14.2617 29.5357 16.0094C29.5682 23.3362 23.567 29.2912 16.2033 29.2912ZM23.5345 19.35C23.129 19.1563 21.1503 18.188 20.7934 18.0428C20.4204 17.9137 20.1609 17.8491 19.8851 18.2365C19.6094 18.6399 18.8471 19.5437 18.62 19.8019C18.3929 20.0762 18.1496 20.1085 17.7442 19.8987C17.3387 19.705 16.0411 19.2693 14.5165 17.9137C13.3162 16.8486 12.5215 15.5413 12.2782 15.1379C12.0511 14.7344 12.2457 14.5246 12.4566 14.3148C12.635 14.1373 12.8621 13.8468 13.0567 13.6209C13.2513 13.3949 13.3324 13.2174 13.4622 12.9592C13.592 12.6849 13.5271 12.4589 13.4298 12.2653C13.3324 12.0716 12.5215 10.1027 12.1971 9.29579C11.8727 8.52115 11.5321 8.61798 11.2888 8.60184H10.5102C10.2345 8.60184 9.81281 8.69867 9.43976 9.10213C9.08293 9.50559 8.04488 10.4739 8.04488 12.4428C8.04488 14.4117 9.48842 16.316 9.68305 16.5742C9.87769 16.8486 12.5215 20.8832 16.5439 22.61C17.5009 23.0296 18.247 23.2716 18.8309 23.4492C19.7878 23.7558 20.6637 23.7074 21.3611 23.6105C22.1396 23.4976 23.7454 22.6422 24.0698 21.7062C24.4104 20.7702 24.4104 19.9794 24.2968 19.8019C24.1833 19.6244 23.94 19.5437 23.5345 19.35Z" fill="#E8EEF2"/>
</svg>
