<svg width="40" height="40" viewBox="0 0 40 40" fill="none" xmlns="http://www.w3.org/2000/svg">
<path d="M5.71484 5.71436H22.8577L34.2863 17.1429L20.0006 31.4286L5.71484 17.1429V5.71436Z" fill="white" fill-opacity="0.12"/>
<path d="M5.71484 5.71436H22.8577L34.2863 17.1429L20.0006 31.4286L5.71484 17.1429V5.71436Z" stroke="white" stroke-width="1.5" stroke-linejoin="round"/>
<path d="M12.8577 15.0001C14.0412 15.0001 15.0006 14.0407 15.0006 12.8572C15.0006 11.6737 14.0412 10.7144 12.8577 10.7144C11.6742 10.7144 10.7148 11.6737 10.7148 12.8572C10.7148 14.0407 11.6742 15.0001 12.8577 15.0001Z" stroke="white" stroke-opacity="0.5" stroke-width="1.2"/>
<path d="M22.1406 15.79C23.6718 15.79 24.9216 16.6292 24.9219 17.9043C24.9216 18.125 24.7423 18.3047 24.5215 18.3047C24.3009 18.3044 24.1223 18.1249 24.1221 17.9043C24.1218 17.3422 23.599 16.7374 22.543 16.6143V19.8252C23.0811 20.042 23.6222 20.2965 24.0479 20.6416C24.5583 21.0556 24.9219 21.614 24.9219 22.3809C24.9216 23.7163 23.7163 24.6855 22.1406 24.6855C21.3472 24.6855 20.6665 24.4475 20.1758 24.083C19.6942 23.7252 19.3597 23.2135 19.3594 22.667C19.3594 22.4462 19.539 22.2668 19.7598 22.2666C19.9807 22.2666 20.1602 22.4461 20.1602 22.667C20.1605 22.882 20.3023 23.1797 20.6533 23.4404C20.9217 23.6398 21.2935 23.7974 21.7471 23.8574C21.7452 23.8417 21.7422 23.8258 21.7422 23.8096V20.3701C21.2203 20.1706 20.6809 19.96 20.2617 19.6768C19.7469 19.3289 19.3595 18.8366 19.3594 18.0947C19.3595 17.5106 19.5951 16.925 20.0742 16.4893C20.5543 16.053 21.2521 15.7901 22.1406 15.79ZM22.543 23.8096C22.543 23.8259 22.54 23.8416 22.5381 23.8574C23.5658 23.7206 24.1218 23.0577 24.1221 22.3809C24.1221 21.9098 23.9142 21.5629 23.5439 21.2627C23.2761 21.0455 22.9333 20.8634 22.543 20.6924V23.8096ZM21.7422 16.6152C21.2267 16.6775 20.8585 16.8582 20.6123 17.082C20.3065 17.3602 20.1603 17.7271 20.1602 18.0947C20.1603 18.4952 20.3441 18.7665 20.71 19.0137C20.9863 19.2004 21.3362 19.351 21.7422 19.5107V16.6152Z" fill="white" fill-opacity="0.6"/>
</svg>
