<svg width="40" height="35" viewBox="0 0 40 35" fill="none" xmlns="http://www.w3.org/2000/svg">
<path d="M12.6527 18.9796C16.3721 18.9796 19.3874 15.9644 19.3874 12.2449C19.3874 8.52548 16.3721 5.51025 12.6527 5.51025C8.93319 5.51025 5.91797 8.52548 5.91797 12.2449C5.91797 15.9644 8.93319 18.9796 12.6527 18.9796Z" fill="white" fill-opacity="0.15"/>
<path d="M24.898 19.5918C27.603 19.5918 29.7959 17.3989 29.7959 14.6939C29.7959 11.9888 27.603 9.7959 24.898 9.7959C22.1929 9.7959 20 11.9888 20 14.6939C20 17.3989 22.1929 19.5918 24.898 19.5918Z" fill="white" fill-opacity="0.12"/>
<path d="M32.2438 20.2041C34.2726 20.2041 35.9173 18.5594 35.9173 16.5306C35.9173 14.5018 34.2726 12.8572 32.2438 12.8572C30.215 12.8572 28.5703 14.5018 28.5703 16.5306C28.5703 18.5594 30.215 20.2041 32.2438 20.2041Z" fill="white" fill-opacity="0.1"/>
<path d="M2.85547 33.0613C2.85547 27.6515 7.24159 23.2654 12.6514 23.2654C18.0612 23.2654 22.4473 27.6515 22.4473 33.0613" fill="white" fill-opacity="0.1"/>
<path d="M17.5508 33.0613C17.5508 29.0033 20.8398 25.7144 24.8977 25.7144C28.9557 25.7144 32.2447 29.0033 32.2447 33.0613" fill="white" fill-opacity="0.07"/>
<path d="M27.3477 33.0613C27.3477 30.3564 29.5407 28.1633 32.2456 28.1633C34.9505 28.1633 37.1436 30.3564 37.1436 33.0613" fill="white" fill-opacity="0.06"/>
<path d="M12.6523 18.0611C15.8645 18.0611 18.4686 15.4571 18.4686 12.2448C18.4686 9.03253 15.8645 6.42847 12.6523 6.42847C9.44 6.42847 6.83594 9.03253 6.83594 12.2448C6.83594 15.4571 9.44 18.0611 12.6523 18.0611Z" stroke="white" stroke-width="1.28571"/>
<path d="M24.8976 18.6735C27.0954 18.6735 28.8772 16.8918 28.8772 14.6939C28.8772 12.4961 27.0954 10.7144 24.8976 10.7144C22.6997 10.7144 20.918 12.4961 20.918 14.6939C20.918 16.8918 22.6997 18.6735 24.8976 18.6735Z" stroke="white" stroke-opacity="0.65" stroke-width="1.2"/>
<path d="M32.2448 19.5919C33.9355 19.5919 35.306 18.2214 35.306 16.5307C35.306 14.84 33.9355 13.4695 32.2448 13.4695C30.5542 13.4695 29.1836 14.84 29.1836 16.5307C29.1836 18.2214 30.5542 19.5919 32.2448 19.5919Z" stroke="white" stroke-opacity="0.45" stroke-width="1.02857"/>
<path d="M4.08203 33.0612C4.08203 28.3273 7.91958 24.4897 12.6535 24.4897C17.3873 24.4897 21.2249 28.3273 21.2249 33.0612" stroke="white" stroke-width="1.28571" stroke-linecap="round"/>
<path d="M18.7773 33.0612C18.7773 29.6804 21.519 26.9387 24.8998 26.9387C28.2806 26.9387 31.0222 29.6804 31.0222 33.0612" stroke="white" stroke-opacity="0.55" stroke-width="1.2" stroke-linecap="round"/>
<path d="M28.5703 33.0612C28.5703 31.0322 30.2148 29.3877 32.2438 29.3877C34.2728 29.3877 35.9173 31.0322 35.9173 33.0612" stroke="white" stroke-opacity="0.4" stroke-width="1.02857" stroke-linecap="round"/>
</svg>
