<svg width="40" height="40" viewBox="0 0 40 40" fill="none" xmlns="http://www.w3.org/2000/svg">
<path d="M14.2857 24.9999C19.4141 24.9999 23.5714 20.8425 23.5714 15.7142C23.5714 10.5858 19.4141 6.42847 14.2857 6.42847C9.15736 6.42847 5 10.5858 5 15.7142C5 20.8425 9.15736 24.9999 14.2857 24.9999Z" fill="white" fill-opacity="0.12"/>
<path d="M20.7143 20.7144L31.4286 31.4286L28.5714 34.2858L25.7143 31.4286L22.8571 34.2858L20 30.7144L22.8571 27.8572L20.7143 25.0001V20.7144Z" fill="white" fill-opacity="0.1"/>
<path d="M14.2846 23.9286C18.8212 23.9286 22.4989 20.2509 22.4989 15.7143C22.4989 11.1777 18.8212 7.5 14.2846 7.5C9.74797 7.5 6.07031 11.1777 6.07031 15.7143C6.07031 20.2509 9.74797 23.9286 14.2846 23.9286Z" stroke="white" stroke-width="1.5"/>
<path d="M14.2846 18.9286C16.0598 18.9286 17.4989 17.4895 17.4989 15.7143C17.4989 13.9391 16.0598 12.5 14.2846 12.5C12.5094 12.5 11.0703 13.9391 11.0703 15.7143C11.0703 17.4895 12.5094 18.9286 14.2846 18.9286Z" stroke="white" stroke-opacity="0.4" stroke-width="1.2"/>
<path d="M20.7143 20.7139L31.4286 31.4286L28.5714 34.2857L25.7143 31.4286L22.8571 34.2857L20 30.7143L22.8571 27.8572L20.7143 25V20.7139Z" stroke="white" stroke-width="1.3" stroke-linejoin="round"/>
</svg>
