<svg width="40" height="40" viewBox="0 0 40 40" fill="none" xmlns="http://www.w3.org/2000/svg">
<path d="M27.856 5H12.1417C10.1693 5 8.57031 6.59898 8.57031 8.57143V31.4286C8.57031 33.401 10.1693 35 12.1417 35H27.856C29.8285 35 31.4275 33.401 31.4275 31.4286V8.57143C31.4275 6.59898 29.8285 5 27.856 5Z" fill="white" fill-opacity="0.1"/>
<path d="M27.856 5H12.1417C10.1693 5 8.57031 6.59898 8.57031 8.57143V31.4286C8.57031 33.401 10.1693 35 12.1417 35H27.856C29.8285 35 31.4275 33.401 31.4275 31.4286V8.57143C31.4275 6.59898 29.8285 5 27.856 5Z" stroke="white" stroke-width="2"/>
<path d="M15.3555 25H13.9269C13.3352 25 12.8555 25.4797 12.8555 26.0714V29.6429C12.8555 30.2346 13.3352 30.7143 13.9269 30.7143H15.3555C15.9472 30.7143 16.4269 30.2346 16.4269 29.6429V26.0714C16.4269 25.4797 15.9472 25 15.3555 25Z" fill="white" fill-opacity="0.35"/>
<path d="M20.7109 20.7139H19.2824C18.6906 20.7139 18.2109 21.1936 18.2109 21.7853V29.6424C18.2109 30.2342 18.6906 30.7139 19.2824 30.7139H20.7109C21.3027 30.7139 21.7824 30.2342 21.7824 29.6424V21.7853C21.7824 21.1936 21.3027 20.7139 20.7109 20.7139Z" fill="white" fill-opacity="0.5"/>
<path d="M26.0703 16.4277H24.6417C24.05 16.4277 23.5703 16.9074 23.5703 17.4992V29.642C23.5703 30.2338 24.05 30.7134 24.6417 30.7134H26.0703C26.662 30.7134 27.1417 30.2338 27.1417 29.642V17.4992C27.1417 16.9074 26.662 16.4277 26.0703 16.4277Z" fill="white" fill-opacity="0.65"/>
<path d="M12.8555 12.1426H27.1412" stroke="white" stroke-opacity="0.5" stroke-width="1.85714" stroke-linecap="round"/>
<path d="M12.8555 15.7139H21.4269" stroke="white" stroke-opacity="0.3" stroke-width="1.42857" stroke-linecap="round"/>
</svg>
