<svg width="40" height="40" viewBox="0 0 40 40" fill="none" xmlns="http://www.w3.org/2000/svg">
<path d="M7.14453 25.7144H32.8588L30.0017 34.2858H10.0017L7.14453 25.7144Z" fill="white" fill-opacity="0.08"/>
<path d="M13.5312 9.40894C14.6152 9.09925 16.1964 9.07326 18.1494 10.324C18.1511 10.3295 18.1535 10.3348 18.1553 10.3406C18.193 10.4645 18.2479 10.6498 18.3135 10.8904C18.4447 11.3716 18.6208 12.0746 18.7969 12.9548C19.1097 14.519 19.4211 16.6391 19.4873 19.0662C19.3841 18.9954 19.2717 18.9184 19.1523 18.8337C18.4726 18.3513 17.5516 17.6493 16.5879 16.7732C14.7169 15.0723 12.7433 12.7663 11.9951 10.1755C12.0573 10.1277 12.1329 10.073 12.2207 10.0144C12.5223 9.81335 12.9663 9.57036 13.5312 9.40894Z" fill="white" fill-opacity="0.18" stroke="white"/>
<path d="M20 20.0001C20 20.0001 27.1429 15.7144 28.5714 10.0001C28.5714 10.0001 25.7143 7.14292 21.4286 10.0001C21.4286 10.0001 20 14.2858 20 20.0001Z" fill="white" fill-opacity="0.14"/>
<path d="M20 20V25.7143" stroke="white" stroke-width="1.3" stroke-linecap="round"/>
<path d="M7.14453 25.7144H32.8588" stroke="white" stroke-opacity="0.35" stroke-width="1.2"/>
<path d="M20.0011 20.0003C20.0011 20.0003 12.8583 15.7146 11.4297 10.0003C11.4297 10.0003 14.2868 7.14317 18.5725 10.0003C18.5725 10.0003 20.0011 14.286 20.0011 20.0003Z" stroke="white" stroke-width="1.4" stroke-linejoin="round"/>
<path d="M20 20.0001C20 20.0001 27.1429 15.7144 28.5714 10.0001C28.5714 10.0001 25.7143 7.14292 21.4286 10.0001C21.4286 10.0001 20 14.2858 20 20.0001Z" stroke="white" stroke-width="1.4" stroke-linejoin="round"/>
<path d="M19.9994 25.7144C18.5709 28.5715 15.7137 30.0001 14.2852 34.2858" stroke="white" stroke-linecap="round"/>
<path d="M20 25.7144C21.4286 28.5715 24.2857 30.0001 25.7143 34.2858" stroke="white" stroke-linecap="round"/>
<path d="M20 25.7144V34.2858" stroke="white" stroke-width="1.1" stroke-linecap="round"/>
</svg>
