<svg width="24" height="24" viewBox="0 0 24 24" fill="none" xmlns="http://www.w3.org/2000/svg">
<path d="M20.288 6.713C20.096 6.521 20 6.28333 20 6V4H18C17.7167 4 17.4793 3.904 17.288 3.712C17.0967 3.52 17.0007 3.28267 17 3C16.9993 2.71733 17.0953 2.48 17.288 2.288C17.4807 2.096 17.718 2 18 2H20C20.55 2 21.021 2.196 21.413 2.588C21.805 2.98 22.0007 3.45067 22 4V6C22 6.28333 21.904 6.521 21.712 6.713C21.52 6.905 21.2827 7.00067 21 7C20.7173 6.99933 20.48 6.90333 20.288 6.712M3 7C2.71667 7 2.47933 6.904 2.288 6.712C2.09667 6.52 2.00067 6.28267 2 6V4C2 3.45 2.196 2.97933 2.588 2.588C2.98 2.19667 3.45067 2.00067 4 2H6C6.28333 2 6.521 2.096 6.713 2.288C6.905 2.48 7.00067 2.71733 7 3C6.99933 3.28267 6.90333 3.52033 6.712 3.713C6.52067 3.90567 6.28333 4.00133 6 4H4V6C4 6.28333 3.904 6.521 3.712 6.713C3.52 6.905 3.28267 7.00067 3 7Z" fill="white"/>
<path d="M17.288 21.712C17.4793 21.904 17.7167 22 18 22H20C20.5507 22.0007 21.0217 21.805 21.413 21.413C21.8043 21.021 22 20.55 22 20V18C22.0013 17.718 21.9057 17.4807 21.713 17.288C21.5203 17.0953 21.2827 16.9993 21 17C20.7173 17.0007 20.48 17.0967 20.288 17.288C20.096 17.4793 20 17.7167 20 18V20H18C17.718 20 17.4807 20.096 17.288 20.288C17.0953 20.48 16.9993 20.7173 17 21C17.0007 21.2827 17.0967 21.52 17.288 21.712Z" fill="white"/>
<path d="M2.588 21.413C2.97933 21.8043 3.45 22 4 22H6C6.28333 22.0013 6.52067 21.9057 6.712 21.713C6.90333 21.5203 6.99933 21.2827 7 21C7.00067 20.7173 6.905 20.48 6.713 20.288C6.521 20.096 6.28333 20 6 20H4V18C4.00133 17.718 3.90567 17.4807 3.713 17.288C3.52033 17.0953 3.28267 16.9993 3 17C2.71733 17.0007 2.48 17.0967 2.288 17.288C2.096 17.4793 2 17.7167 2 18V20C2.00067 20.5507 2.19667 21.0217 2.588 21.413Z" fill="white"/>
</svg>
